<svg id="Layer_1" data-name="Layer 1" xmlns="http://www.w3.org/2000/svg" viewBox="0 0 205.11 44.56"><defs><style>.cls-1{fill:#df6512;}.cls-2{font-size:33px;fill:#001e57;font-family:Lato;font-weight:700;}.cls-3{fill:none;}</style></defs><title>sssssssss</title><path class="cls-1" d="M298.64,494.6V484.47h-5.81l-0.12-1.56,5-3.94-4.25-7.75-6.12,2.38-1.25-1.37,2.81-5.25-7.75-4.5-4.06,5.5-1.44-.75v-5.75h-9.75v5.75l-1.44.75-4.06-5.5-7.75,4.5,2.81,5.25-1.25,1.38-6.12-2.37L243.83,479l5,3.94-0.12,1.56h-5.81V494.6h6v2.56l-4.62,2.63,3.19,6.25a17.36,17.36,0,0,1,10.68-5.87,16.38,16.38,0,1,1,25.26,0A16.75,16.75,0,0,1,294.08,506l3.19-6.25-4.62-2.62V494.6h6Z" transform="translate(-242.89 -461.47)"/><path class="cls-1" d="M271,506h21.25a21.65,21.65,0,0,0-11.33-4.48V489.31h-4.75v9.75h-1.42l-2-22.67H271V506Z" transform="translate(-242.89 -461.47)"/><path class="cls-1" d="M271.56,506H250.31a21.65,21.65,0,0,1,11.33-4.48V482.31h4.75v16.75h1.42l2-22.67h1.75V506Z" transform="translate(-242.89 -461.47)"/><text class="cls-2" transform="translate(67.5 35.67)">Solustrid</text><rect class="cls-3" x="201.11" y="10.42" width="4" height="25.25"/></svg>